<?xml version="1.0" encoding="UTF-8" standalone="no"?>
<svg width="515px" height="515px" viewBox="0 0 515 515" version="1.1" xmlns="http://www.w3.org/2000/svg" xmlns:xlink="http://www.w3.org/1999/xlink">
    <!-- Generator: Sketch 40.1 (33804) - http://www.bohemiancoding.com/sketch -->
    <title>Combined Shape</title>
    <desc>Created with Sketch.</desc>
    <defs></defs>
    <g id="Page-1" stroke="none" stroke-width="1" fill="none" fill-rule="evenodd">
        <path d="M0.553,384.021 L0.553,384.044 C0.861,395.468 0.956,406.958 2.883,418.312 C4.925,430.324 7.844,442.037 13.413,452.939 C20.942,467.695 31.282,480.156 44.334,490.335 C53.705,497.644 63.942,503.446 75.274,507.106 C91.798,512.436 108.845,514.479 126.141,514.579 C136.932,514.647 147.716,514.917 158.511,514.872 C236.906,514.542 315.303,515.438 393.7,514.388 C404.103,514.247 414.336,512.978 424.546,511.111 C444.115,507.529 461.41,499.179 476.207,485.978 C493.452,470.597 505.087,451.773 510.339,429.054 C513.776,414.204 514.636,399.138 514.783,384.019 L514.783,381.003 C514.783,379.833 514.338,124.111 514.297,120.731 C514.182,111.446 513.498,102.231 511.757,93.095 C509.64,81.962 506.649,71.114 501.318,61.042 C495.689,50.401 488.638,40.833 479.917,32.472 C466.558,19.662 451.142,10.603 433.195,5.811 C416.985,1.484 400.448,0.526 383.79,0.541 C383.763,0.537 383.7,0.368 383.696,0.286 L131.56,0.286 C131.555,0.372 131.552,0.458 131.546,0.541 C122.092,0.714 112.624,0.643 103.218,1.809 C92.914,3.09 82.709,5.019 72.956,8.621 C57.594,14.303 44.247,23.153 32.846,34.968 C19.929,48.354 10.824,63.835 5.993,81.862 C1.683,97.946 0.745,114.35 0.722,130.87 L0.553,384.021 Z M260.001,434.488 C258.933,434.488 257.914,434.449 257.139,434.412 C256.524,434.465 255.889,434.488 255.253,434.488 C232.816,434.488 217.814,423.881 204.575,414.515 C195.086,407.812 186.137,401.484 175.653,399.74 C170.504,398.886 165.382,398.453 160.433,398.453 C151.516,398.453 144.469,399.836 139.324,400.842 C136.158,401.459 133.428,401.99 131.318,401.99 C129.108,401.99 126.423,401.5 125.304,397.679 C124.417,394.665 123.781,391.745 123.167,388.933 C121.631,381.906 120.517,377.617 117.886,377.21 C89.745,372.868 73.118,366.472 69.806,358.726 C69.459,357.912 69.265,357.093 69.222,356.283 C69.093,353.974 70.723,351.949 72.999,351.572 C95.347,347.892 115.218,336.08 132.063,316.453 C145.112,301.258 151.52,286.74 152.208,285.137 C152.238,285.065 152.273,284.989 152.309,284.92 C155.556,278.332 156.202,272.639 154.235,268.004 C150.609,259.453 138.6,255.643 130.655,253.122 C128.679,252.497 126.81,251.905 125.321,251.314 C118.278,248.532 106.695,242.654 108.238,234.541 C109.362,228.625 117.187,224.505 123.511,224.505 C125.267,224.505 126.823,224.813 128.133,225.428 C135.279,228.776 141.708,230.473 147.237,230.473 C154.113,230.473 157.434,227.855 158.237,227.111 C158.039,223.443 157.797,219.565 157.563,215.897 C157.563,215.893 157.558,215.849 157.558,215.849 C155.944,190.174 153.931,158.222 162.104,139.899 C186.566,85.052 238.443,80.787 253.755,80.787 C254.163,80.787 260.429,80.725 260.429,80.725 C260.712,80.72 261.019,80.716 261.337,80.716 C276.691,80.716 328.676,84.986 353.153,139.866 C361.326,158.201 359.311,190.18 357.692,215.882 L357.616,217.112 C357.394,220.602 357.189,223.905 357.016,227.107 C357.772,227.803 360.811,230.203 366.994,230.446 C372.265,230.244 378.322,228.555 384.992,225.432 C387.054,224.464 389.337,224.263 390.887,224.263 C393.23,224.263 395.614,224.719 397.601,225.548 L397.707,225.589 C403.367,227.598 407.074,231.613 407.154,235.831 C407.225,239.763 404.303,245.64 389.931,251.316 C388.459,251.899 386.581,252.495 384.597,253.124 C376.645,255.648 364.646,259.456 361.02,268.002 C359.05,272.637 359.698,278.328 362.946,284.914 C362.982,284.986 363.013,285.059 363.048,285.135 C364.048,287.479 388.253,342.67 442.257,351.567 C444.532,351.946 446.165,353.973 446.035,356.278 C445.987,357.106 445.787,357.934 445.437,358.743 C442.148,366.446 425.522,372.833 397.373,377.181 C394.731,377.589 393.618,381.859 392.096,388.849 C391.466,391.736 390.825,394.566 389.95,397.54 C389.131,400.337 387.309,401.704 384.383,401.704 L383.942,401.704 C382.037,401.704 379.338,401.358 375.934,400.692 C369.984,399.534 363.311,398.456 354.825,398.456 C349.877,398.456 344.756,398.89 339.601,399.743 C329.128,401.487 320.18,407.805 310.708,414.501 C297.443,423.88 282.436,434.488 260.001,434.488 Z" id="Combined-Shape" fill="#FFFFFF"></path>
    </g>
</svg>