<?xml version="1.0" encoding="utf-8"?>
<!-- Generator: Adobe Illustrator 18.0.0, SVG Export Plug-In . SVG Version: 6.00 Build 0)  -->
<!DOCTYPE svg PUBLIC "-//W3C//DTD SVG 1.1//EN" "http://www.w3.org/Graphics/SVG/1.1/DTD/svg11.dtd">
<svg version="1.1" id="Layer_1" xmlns="http://www.w3.org/2000/svg" xmlns:xlink="http://www.w3.org/1999/xlink" x="0px" y="0px"
	 viewBox="0 0 612 792" enable-background="new 0 0 612 792" xml:space="preserve">
<path fill="#FFFFFF" d="M270.7,217.6L14.9,473.7C5,483.2,0,494.9,0,509.1c0,14.2,5,25.9,14.9,35.4l29.4,29.9
	C53.9,584,65.8,589,79.7,589c13.6,0,25.6-4.8,35.8-14.6l190.6-191l190.8,190.8c9.6,9.6,21.5,14.6,35.4,14.6
	c13.6,0,25.6-4.8,35.8-14.6l29.4-29.9c9.6-9.6,14.6-21.4,14.6-35.3c0-13.9-4.8-25.7-14.6-35.4L341.9,217.5
	c-10.2-9.6-22.2-14.6-35.8-14.6C292.2,203,280.4,207.8,270.7,217.6L270.7,217.6z"/>
</svg>
