<?xml version="1.0" encoding="utf-8"?>
<!-- Generator: Adobe Illustrator 18.0.0, SVG Export Plug-In . SVG Version: 6.00 Build 0)  -->
<!DOCTYPE svg PUBLIC "-//W3C//DTD SVG 1.1//EN" "http://www.w3.org/Graphics/SVG/1.1/DTD/svg11.dtd">
<svg version="1.1" id="Layer_1" xmlns="http://www.w3.org/2000/svg" xmlns:xlink="http://www.w3.org/1999/xlink" x="0px" y="0px"
	 viewBox="0 0 612 792" enable-background="new 0 0 612 792" xml:space="preserve">
<path fill="#212121" d="M268.9,395.9c0,2.6,0.9,4.9,2.8,6.9l49.2,49.1c1.8,1.9,4.1,2.8,6.8,2.8c2.6,0,4.9-0.9,6.8-2.8l5.7-5.6
	c1.9-2,2.8-4.2,2.8-6.9c0-2.6-0.9-4.9-2.8-6.8l-36.7-36.7l36.7-36.6c1.9-2,2.8-4.2,2.8-6.9c0-2.6-0.9-4.9-2.8-6.8l-5.7-5.6
	c-1.8-1.9-4-2.8-6.8-2.8c-2.7,0-5,0.9-6.8,2.8l-49.2,49.2C269.8,391.1,268.9,393.4,268.9,395.9z"/>
</svg>
