<svg width="43" height="31" xmlns="http://www.w3.org/2000/svg">

 <g>
  <title>background</title>
  <rect fill="none" id="canvas_background" height="33" width="45" y="-1" x="-1"/>
 </g>
 <g>
  <title>Layer 1</title>
  <g id="svg_1">
   <path id="svg_2" d="m41.300012,13.4c-0.5,-5 -5,-8.7 -10,-8.2c-5,0.5 -8.7,5 -8.2,10c0.2,1.9 1,3.7 2.2,5l-6.9,8.4l2.5,2l6.9,-8.4c1.6,0.9 3.4,1.3 5.4,1.1c5,-0.4 8.6,-4.9 8.1,-9.9zm-8.5,6.8c-3.3,0.3 -6.2,-2.1 -6.5,-5.3c-0.3,-3.3 2.1,-6.2 5.3,-6.5c3.3,-0.3 6.2,2.1 6.5,5.3c0.4,3.3 -2,6.2 -5.3,6.5z" fill="#FFFFFF"/>
   <rect id="svg_3" height="3.4" width="26.6" fill="#FFFFFF" y="0" x="0.000012"/>
   <path id="svg_4" d="m21.600012,8l-21.6,0l0,3.4l20,0c0.4,-1.2 0.9,-2.3 1.6,-3.4z" fill="#FFFFFF"/>
   <path id="svg_5" d="m19.900012,16.1l-19.8,0l0,3.4l20.9,0c-0.6,-1.1 -1,-2.2 -1.1,-3.4z" fill="#FFFFFF"/>
  </g>
 </g>
</svg>