<?xml version="1.0" encoding="utf-8"?>
<!-- Generator: Adobe Illustrator 24.1.0, SVG Export Plug-In . SVG Version: 6.00 Build 0)  -->
<svg version="1.1" id="Layer_2_1_" xmlns="http://www.w3.org/2000/svg" xmlns:xlink="http://www.w3.org/1999/xlink" x="0px" y="0px"
	 viewBox="0 0 110 110" style="enable-background:new 0 0 110 110;" xml:space="preserve">
<style type="text/css">
	.st0{fill:#FFFFFF;}
</style>
<g>
	<path class="st0" d="M93.1,49c-2.3,0-4.2,1.6-4.8,3.7H82c-0.3-5.5-2.5-10.5-6-14.4l4.5-4.5c0.7,0.4,1.6,0.7,2.5,0.7
		c1.3,0,2.5-0.5,3.5-1.4c1.9-1.9,1.9-5,0-7c-1.9-1.9-5-1.9-7,0c-0.9,0.9-1.4,2.2-1.4,3.5c0,0.9,0.2,1.7,0.7,2.5l-4.5,4.5
		c-3.9-3.5-8.9-5.7-14.4-6v-6.3c2.1-0.5,3.7-2.5,3.7-4.8c0-2.7-2.2-4.9-4.9-4.9c-2.7,0-4.9,2.2-4.9,4.9c0,2.3,1.6,4.2,3.7,4.8v6.3
		c-5.5,0.3-10.5,2.5-14.4,6l-4.5-4.5c0.4-0.7,0.7-1.6,0.7-2.5c0-1.3-0.5-2.5-1.4-3.5c-1.9-1.9-5-1.9-7,0c-1.9,1.9-1.9,5,0,7
		c0.9,0.9,2.2,1.4,3.5,1.4c0.9,0,1.7-0.2,2.5-0.7l4.5,4.5c-3.5,3.9-5.7,8.9-6,14.4H29c-0.5-2.1-2.5-3.7-4.8-3.7
		c-2.7,0-4.9,2.2-4.9,4.9c0,2.7,2.2,4.9,4.9,4.9c2.3,0,4.2-1.6,4.8-3.7h6.3c0.3,5.5,2.5,10.5,6,14.4L36.8,74
		c-0.7-0.4-1.6-0.7-2.5-0.7c-1.3,0-2.5,0.5-3.5,1.4c-1.9,1.9-1.9,5,0,7c1,1,2.2,1.4,3.5,1.4c1.3,0,2.5-0.5,3.5-1.4
		c0.9-0.9,1.4-2.2,1.4-3.5c0-0.9-0.2-1.7-0.7-2.5l4.5-4.5c3.9,3.5,8.9,5.7,14.4,6v6.3c-2.1,0.5-3.7,2.5-3.7,4.8
		c0,2.7,2.2,4.9,4.9,4.9c2.7,0,4.9-2.2,4.9-4.9c0-2.3-1.6-4.2-3.7-4.8v-6.3c5.5-0.3,10.5-2.5,14.4-6l4.5,4.5
		c-0.4,0.7-0.7,1.6-0.7,2.5c0,1.3,0.5,2.5,1.4,3.5c1,1,2.2,1.4,3.5,1.4c1.3,0,2.5-0.5,3.5-1.4c1.9-1.9,1.9-5,0-7
		c-0.9-0.9-2.2-1.4-3.5-1.4c-0.9,0-1.7,0.2-2.5,0.7L76,69.5c3.5-3.9,5.7-8.9,6-14.4h6.3c0.5,2.1,2.5,3.7,4.8,3.7
		c2.7,0,4.9-2.2,4.9-4.9C98,51.2,95.8,49,93.1,49z M81.3,27.8c0.5-0.5,1.1-0.7,1.7-0.7c0.6,0,1.3,0.2,1.7,0.7c1,1,1,2.5,0,3.5
		C84.3,31.8,83.7,32,83,32c-0.7,0-1.3-0.3-1.7-0.7c-0.5-0.5-0.7-1.1-0.7-1.7C80.5,28.9,80.8,28.3,81.3,27.8z M56.2,19.5
		c0-1.4,1.1-2.5,2.5-2.5c1.4,0,2.5,1.1,2.5,2.5S60,22,58.7,22C57.3,22,56.2,20.9,56.2,19.5z M32.6,31.3c-1-1-1-2.5,0-3.5
		c0.5-0.5,1.1-0.7,1.7-0.7c0.6,0,1.3,0.2,1.7,0.7c0.5,0.5,0.7,1.1,0.7,1.7c0,0.7-0.3,1.3-0.7,1.7C35.6,31.8,35,32,34.3,32
		C33.7,32,33.1,31.8,32.6,31.3z M24.3,56.4c-1.4,0-2.5-1.1-2.5-2.5c0-1.4,1.1-2.5,2.5-2.5c1.4,0,2.5,1.1,2.5,2.5
		C26.7,55.3,25.6,56.4,24.3,56.4z M36.1,80c-1,1-2.5,1-3.5,0c-1-1-1-2.5,0-3.5c0.5-0.5,1.1-0.7,1.7-0.7c0.7,0,1.3,0.3,1.7,0.7
		c0.5,0.5,0.7,1.1,0.7,1.7C36.8,78.9,36.5,79.5,36.1,80z M61.1,88.3c0,1.4-1.1,2.5-2.5,2.5c-1.4,0-2.5-1.1-2.5-2.5s1.1-2.5,2.5-2.5
		C60,85.9,61.1,87,61.1,88.3z M84.7,76.5c1,1,1,2.5,0,3.5c-1,1-2.5,1-3.5,0c-0.5-0.5-0.7-1.1-0.7-1.7c0-0.7,0.3-1.3,0.7-1.7
		c0.5-0.5,1.1-0.7,1.7-0.7C83.7,75.8,84.3,76,84.7,76.5z M58.7,74.8c-11.5,0-20.9-9.4-20.9-20.9c0-11.5,9.4-20.9,20.9-20.9
		s20.9,9.4,20.9,20.9C79.6,65.4,70.2,74.8,58.7,74.8z M93.1,56.4c-1.4,0-2.5-1.1-2.5-2.5c0-1.4,1.1-2.5,2.5-2.5
		c1.4,0,2.5,1.1,2.5,2.5C95.5,55.3,94.4,56.4,93.1,56.4z"/>
	<circle class="st0" cx="55" cy="61.9" r="3.7"/>
	<circle class="st0" cx="68" cy="53.9" r="3.7"/>
	<circle class="st0" cx="55" cy="47.7" r="3.7"/>
</g>
</svg>
