<?xml version="1.0" encoding="utf-8"?>
<!-- Generator: Adobe Illustrator 18.0.0, SVG Export Plug-In . SVG Version: 6.00 Build 0)  -->
<!DOCTYPE svg PUBLIC "-//W3C//DTD SVG 1.1//EN" "http://www.w3.org/Graphics/SVG/1.1/DTD/svg11.dtd">
<svg version="1.1" id="Layer_3" xmlns="http://www.w3.org/2000/svg" xmlns:xlink="http://www.w3.org/1999/xlink" x="0px" y="0px"
	 viewBox="0 0 110 110" enable-background="new 0 0 110 110" xml:space="preserve">
<g>
	<g>
		<path fill="#FFFFFF" d="M60.2,89.9c-0.6,0-1.2-0.2-1.6-0.7L20.7,51.4c-0.5-0.5-0.7-1.1-0.7-1.8l2.1-27.1c0.1-1.2,1-2.1,2.2-2.1
			l25.4-0.3c0.6,0,1.2,0.2,1.6,0.7l37.9,37.9c0.9,0.9,0.9,2.3,0,3.2L61.8,89.3C61.4,89.7,60.8,89.9,60.2,89.9z M24.6,48.9l35.6,35.6
			l24.3-24.3L48.9,24.6l-22.4,0.3L24.6,48.9z"/>
	</g>
	<g>
		<path fill="#FFFFFF" d="M40.9,33.3c1.8,1.8,1.8,4.7,0,6.5c-1.8,1.8-4.7,1.8-6.5,0c-1.8-1.8-1.8-4.7,0-6.5
			C36.2,31.5,39.1,31.5,40.9,33.3z"/>
	</g>
</g>
</svg>
