<?xml version="1.0" encoding="utf-8"?>
<!-- Generator: Adobe Illustrator 18.0.0, SVG Export Plug-In . SVG Version: 6.00 Build 0)  -->
<!DOCTYPE svg PUBLIC "-//W3C//DTD SVG 1.1//EN" "http://www.w3.org/Graphics/SVG/1.1/DTD/svg11.dtd">
<svg version="1.1" id="Layer_2" xmlns="http://www.w3.org/2000/svg" xmlns:xlink="http://www.w3.org/1999/xlink" x="0px" y="0px"
	 viewBox="0 0 110 110" enable-background="new 0 0 110 110" xml:space="preserve">
<g>
	<path fill="#FFFFFF" d="M55,15.1c-15.8,0-28.7,12.7-28.7,28.4c0,11.9,10.8,20.8,11.2,21.2c2.6,2.1,4.7,6.9,4.7,10.2v8.9
		c0,5.4,4.7,11.2,10.2,11.2h5c5.5,0,10.3-5.8,10.3-11.2v-8.9c0-3.3,2.1-8.1,4.7-10.2c0.5-0.4,11.3-9.3,11.3-21.2
		C83.7,27.8,70.8,15.1,55,15.1z M57.5,91.7h-5c-3.5,0-7.1-4-7.1-8V79h4.9h9.3h4.9v4.8C64.6,87.7,61,91.7,57.5,91.7z M51.8,57.6
		l-5-7.4h16.4l-5,7.4l-1.5,18.1h-3.5L51.8,57.6z M70.5,62.2c-3.2,2.6-5.9,8.3-5.9,12.7v0.9h-4.7l1.4-17L69.2,47H40.8l7.8,11.7
		l1.4,17h-4.7v-0.9c0-4.3-2.7-10-5.9-12.7c-0.1-0.1-10-8.2-10-18.7c0-13.9,11.4-25.2,25.5-25.2c14.1,0,25.6,11.3,25.6,25.2
		C80.5,53.9,70.6,62.1,70.5,62.2z"/>
</g>
</svg>
