<?xml version="1.0" encoding="utf-8"?>
<!-- Generator: Adobe Illustrator 18.0.0, SVG Export Plug-In . SVG Version: 6.00 Build 0)  -->
<!DOCTYPE svg PUBLIC "-//W3C//DTD SVG 1.1//EN" "http://www.w3.org/Graphics/SVG/1.1/DTD/svg11.dtd">
<svg version="1.1" id="Layer_3" xmlns="http://www.w3.org/2000/svg" xmlns:xlink="http://www.w3.org/1999/xlink" x="0px" y="0px"
	 viewBox="0 0 110 110" enable-background="new 0 0 110 110" xml:space="preserve">
<g>
	<g>
		<g>
			<path fill="#FFFFFF" d="M91.2,81.5H81.1c-1.2,0-2.1-0.9-2.1-2.1s0.9-2.1,2.1-2.1h8.1V51.5c0-1.2,0.9-2.1,2.1-2.1s2.1,0.9,2.1,2.1
				v27.9C93.3,80.5,92.4,81.5,91.2,81.5z"/>
		</g>
		<g>
			<path fill="#FFFFFF" d="M50.2,81.7H20.1c-1.2,0-2.1-0.9-2.1-2.1V63c0-1.2,0.9-2.1,2.1-2.1s2.1,0.9,2.1,2.1v14.5h28.1
				c1.2,0,2.1,0.9,2.1,2.1S51.4,81.7,50.2,81.7z"/>
		</g>
		<g>
			<path fill="#FFFFFF" d="M10.3,71.7c-0.7,0-1.3-0.3-1.7-0.9c-0.6-1-0.4-2.3,0.6-2.9l58.1-39.2c0.8-0.5,1.8-0.5,2.6,0.2l31.3,27.4
				c0.9,0.8,1,2.1,0.2,3c-0.8,0.9-2.1,1-3,0.2L68.2,33L11.4,71.3C11.1,71.6,10.7,71.7,10.3,71.7z"/>
		</g>
	</g>
	<g>
		<path fill="#FFFFFF" d="M58.1,63.1c-3.2,0-5.8-2.6-5.8-5.8c0-3.2,2.6-5.8,5.8-5.8c3.2,0,5.8,2.6,5.8,5.8
			C63.9,60.5,61.3,63.1,58.1,63.1z M58.1,55.6c-0.9,0-1.6,0.7-1.6,1.6c0,0.9,0.7,1.6,1.6,1.6c0.9,0,1.6-0.7,1.6-1.6
			C59.7,56.4,59,55.6,58.1,55.6z"/>
	</g>
	<g>
		<path fill="#FFFFFF" d="M76,71.5c-2.5,0-4.6-2-4.6-4.6c0-2.5,2-4.6,4.6-4.6s4.6,2,4.6,4.6C80.5,69.5,78.5,71.5,76,71.5z M76,66.6
			c-0.2,0-0.4,0.2-0.4,0.4c0,0.2,0.2,0.4,0.4,0.4c0.2,0,0.4-0.2,0.4-0.4C76.3,66.8,76.2,66.6,76,66.6z"/>
	</g>
	<g>
		<path fill="#FFFFFF" d="M50.4,81.6c-1.2,0-2.1-0.9-2.1-2.1V71c0-5.4,4.4-9.8,9.8-9.8c5.4,0,9.8,4.4,9.8,9.8l-0.1,6.2l1,0l0-1.1
			c0-3.9,3.2-7.2,7.2-7.2c4,0,7.2,3.2,7.2,7.2v3.2c0,1.2-0.9,2.1-2.1,2.1S79,80.4,79,79.3v-3.2c0-1.7-1.3-3-3-3c-1.7,0-3,1.3-3,3
			l0,3.2c0,1.1-0.9,2-2.1,2.1l-5.2,0.1c-0.6,0-1.1-0.2-1.5-0.6c-0.4-0.4-0.6-0.9-0.6-1.5l0.1-8.3c0-3-2.5-5.5-5.6-5.5
			c-3.1,0-5.6,2.5-5.6,5.6v8.5C52.5,80.7,51.6,81.6,50.4,81.6z"/>
	</g>
</g>
</svg>
