<?xml version="1.0" encoding="utf-8"?>
<!-- Generator: Adobe Illustrator 18.0.0, SVG Export Plug-In . SVG Version: 6.00 Build 0)  -->
<!DOCTYPE svg PUBLIC "-//W3C//DTD SVG 1.1//EN" "http://www.w3.org/Graphics/SVG/1.1/DTD/svg11.dtd">
<svg version="1.1" id="Layer_3" xmlns="http://www.w3.org/2000/svg" xmlns:xlink="http://www.w3.org/1999/xlink" x="0px" y="0px"
	 viewBox="0 0 612 792" enable-background="new 0 0 612 792" xml:space="preserve">
<g>
	<path fill="#FFFFFF" d="M335.5,475.4c-6-4.4-13.4-7.2-21.7-8.4v-34c6.6,1.9,13,6,16.3,10.6c1.4,1.9,3.6,3,6,3
		c1.6,0,3.1-0.5,4.4-1.4c1.6-1.2,2.6-2.9,2.9-4.8s-0.2-3.9-1.3-5.5c-6.4-8.8-17-15.3-28.2-17.2v-8c0.1-1.9-0.6-3.8-2-5.2
		c-1.3-1.4-3.2-2.3-5.1-2.3c-0.3,0-0.6,0-1,0h-0.2c-0.3,0.1-0.6,0.1-0.8,0.2c-3.4,0.8-5.7,3.9-5.6,7.3v8c-7.9,0.9-14.7,3-20.1,6.3
		c-9.2,5.6-14.4,14.7-14.4,25.2c0,8.7,4.7,17.1,12.9,23.1c6,4.4,13.4,7.2,21.7,8.4v34c-6.6-1.9-13-6-16.3-10.6c-1.4-1.9-3.6-3-6-3
		c-1.6,0-3.1,0.5-4.4,1.4c-1.6,1.2-2.6,2.9-2.9,4.8s0.2,3.9,1.3,5.5c6.4,8.8,17,15.3,28.2,17.2v8.1c0,2,0.7,3.8,2.1,5.2
		s3.2,2.2,5.2,2.2h0.1c4,0,7.3-3.3,7.4-7.2V530c7.9-0.9,14.7-3,20.1-6.3c9.2-5.6,14.4-14.7,14.4-25.2
		C348.4,489.8,343.7,481.4,335.5,475.4z M313.9,482.1c5.1,1,9.6,2.8,13,5.3c4.4,3.2,6.9,7.2,6.9,11.2c0,5.8-2.1,9.4-7.3,12.6
		c-3.2,1.9-7.6,3.4-12.5,4.1v-33.2L313.9,482.1L313.9,482.1z M279.3,449.2c0-5.8,2.1-9.4,7.3-12.6c3.3-2,7.7-3.4,12.5-4.2v33.2
		c-5.1-1-9.6-2.8-13-5.3C281.7,457.1,279.3,453.1,279.3,449.2z M306.5,543L306.5,543L306.5,543L306.5,543z"/>
	<path fill="#FFFFFF" d="M429.9,303.5c25.8,0,46.8-21,46.8-46.8s-21-46.8-46.8-46.8s-46.8,21-46.8,46.8S404.1,303.5,429.9,303.5z
		 M429.9,224.5c17.7,0,32.1,14.4,32.1,32.1s-14.4,32.1-32.1,32.1s-32.1-14.4-32.1-32.1S412.2,224.5,429.9,224.5z"/>
	<path fill="#FFFFFF" d="M494.4,354.4c-17.2-16.9-40.1-26.2-64.5-26.2c-17.5,0-34.5,4.8-49.2,14c-13.6,8.5-24.6,20.4-32,34.5
		c-13.6-6-27.8-9-42.2-9s-28.6,3-42.2,9c-7.4-14.1-18.4-25.9-32-34.5c-14.6-9.2-31.6-14-49.2-14c-24.4,0-47.3,9.3-64.5,26.2
		c-17.2,16.9-26.7,39.4-26.7,63.4v75.7c0,4.1,3.3,7.4,7.4,7.4H204c5.8,21.9,18.8,41.7,36.6,55.9c18.9,15.1,41.8,23,66,23
		s47-8,65.9-23c17.9-14.2,30.8-34,36.6-55.9h104.7c4.1,0,7.4-3.3,7.4-7.4v-75.7C521.2,393.9,511.7,371.3,494.4,354.4z M398,420.3
		c-8.8-15-21.3-27.7-36.2-36.9c13.2-25,39-40.5,68.1-40.5c20.6,0,39.9,7.8,54.3,21.9s22.3,32.9,22.3,53v68.4h-94.6
		c0.5-4.1,0.7-8.3,0.7-12.4C412.6,455,407.5,436.5,398,420.3z M306.5,565.2c-50.4,0-91.4-41-91.4-91.4s41-91.4,91.4-91.4
		s91.4,41,91.4,91.4S356.9,565.2,306.5,565.2z M201.2,486.2h-94.6v-68.4c0-20.1,7.9-38.9,22.3-53s33.7-21.9,54.3-21.9
		c29,0,54.9,15.4,68.1,40.5c-14.9,9.1-27.4,21.8-36.2,36.9c-9.5,16.2-14.6,34.7-14.6,53.5C200.4,477.9,200.7,482,201.2,486.2z"/>
	<path fill="#FFFFFF" d="M183.1,303.5c25.8,0,46.8-21,46.8-46.8s-21-46.8-46.8-46.8s-46.8,21-46.8,46.8S157.3,303.5,183.1,303.5z
		 M183.1,224.5c17.7,0,32.1,14.4,32.1,32.1s-14.4,32.1-32.1,32.1s-32.1-14.3-32.1-32C151,238.9,165.4,224.5,183.1,224.5z"/>
</g>
</svg>
