<?xml version="1.0" encoding="utf-8"?>
<!-- Generator: Adobe Illustrator 18.0.0, SVG Export Plug-In . SVG Version: 6.00 Build 0)  -->
<!DOCTYPE svg PUBLIC "-//W3C//DTD SVG 1.1//EN" "http://www.w3.org/Graphics/SVG/1.1/DTD/svg11.dtd">
<svg version="1.1" id="Layer_2" xmlns="http://www.w3.org/2000/svg" xmlns:xlink="http://www.w3.org/1999/xlink" x="0px" y="0px"
	 viewBox="0 0 110 110" enable-background="new 0 0 110 110" xml:space="preserve">
<g>
	<g>
		<path fill="#FFFFFF" d="M54.7,88.6c-1.2,0-2.1-0.9-2.1-2.1V22.9c0-1.2,0.9-2.1,2.1-2.1s2.1,0.9,2.1,2.1v63.5
			C56.8,87.7,55.8,88.6,54.7,88.6z"/>
	</g>
	<g>
		<path fill="#FFFFFF" d="M72,89.7H37.4c-1.2,0-2.1-0.9-2.1-2.1s0.9-2.1,2.1-2.1H72c1.2,0,2.1,0.9,2.1,2.1S73.1,89.7,72,89.7z"/>
	</g>
	<g>
		<g>
			<path fill="#FFFFFF" d="M28.6,33.6c-0.1,0-0.3,0-0.4,0l-11.3-2.3c-1.1-0.2-1.9-1.3-1.6-2.5s1.3-1.9,2.5-1.6l10.8,2.2L54,20.4
				c1.1-0.4,2.3,0.2,2.7,1.3c0.4,1.1-0.2,2.3-1.3,2.7l-26.1,9.1C29,33.5,28.8,33.6,28.6,33.6z"/>
		</g>
		<g>
			<path fill="#FFFFFF" d="M80.8,33.6c-0.2,0-0.5,0-0.7-0.1L54,24.4c-1.1-0.4-1.7-1.6-1.3-2.7c0.4-1.1,1.6-1.7,2.7-1.3l25.6,8.9
				l10.8-2.2c1.1-0.2,2.2,0.5,2.5,1.6c0.2,1.1-0.5,2.2-1.6,2.5l-11.3,2.3C81,33.5,80.9,33.6,80.8,33.6z"/>
		</g>
	</g>
	<g>
		<g>
			<path fill="#FFFFFF" d="M40.6,64.1h-23c-0.7,0-1.4-0.4-1.8-0.9c-0.4-0.6-0.5-1.3-0.2-2l11.5-26.6c0.3-0.8,1.1-1.3,1.9-1.3l0,0
				c0.8,0,1.6,0.5,1.9,1.3l11.5,26.6c0.3,0.6,0.2,1.4-0.2,2C41.9,63.7,41.3,64.1,40.6,64.1z M20.8,59.9h16.6l-8.3-19.2L20.8,59.9z"
				/>
		</g>
		<g>
			<path fill="#FFFFFF" d="M29.1,72.7c-9.2,0-13.3-9.5-13.4-9.9c-0.4-1.1,0.1-2.3,1.1-2.7c1.1-0.4,2.3,0.1,2.7,1.1
				c0,0.1,3.2,7.3,9.5,7.3c6.4,0,9.5-7.3,9.5-7.3c0.5-1.1,1.7-1.6,2.7-1.1c1.1,0.4,1.6,1.7,1.1,2.7C42.4,63.2,38.3,72.7,29.1,72.7z"
				/>
		</g>
	</g>
	<g>
		<g>
			<path fill="#FFFFFF" d="M92.8,64.1h-23c-0.7,0-1.4-0.4-1.8-0.9c-0.4-0.6-0.5-1.3-0.2-2l11.5-26.6c0.3-0.8,1.1-1.3,1.9-1.3l0,0
				c0.8,0,1.6,0.5,1.9,1.3l11.5,26.6c0.3,0.6,0.2,1.4-0.2,2C94.1,63.7,93.5,64.1,92.8,64.1z M73,59.9h16.6l-8.3-19.2L73,59.9z"/>
		</g>
		<g>
			<path fill="#FFFFFF" d="M81.3,72.7c-9.2,0-13.3-9.5-13.4-9.9c-0.4-1.1,0.1-2.3,1.1-2.7c1.1-0.4,2.3,0.1,2.7,1.1
				c0,0.1,3.2,7.3,9.5,7.3c6.4,0,9.5-7.3,9.5-7.3c0.5-1.1,1.7-1.6,2.7-1.1c1.1,0.4,1.6,1.7,1.1,2.7C94.5,63.2,90.5,72.7,81.3,72.7z"
				/>
		</g>
	</g>
</g>
</svg>
