<?xml version="1.0" encoding="utf-8"?>
<!-- Generator: Adobe Illustrator 18.0.0, SVG Export Plug-In . SVG Version: 6.00 Build 0)  -->
<!DOCTYPE svg PUBLIC "-//W3C//DTD SVG 1.1//EN" "http://www.w3.org/Graphics/SVG/1.1/DTD/svg11.dtd">
<svg version="1.1" id="Layer_1" xmlns="http://www.w3.org/2000/svg" xmlns:xlink="http://www.w3.org/1999/xlink" x="0px" y="0px"
	 viewBox="0 0 650 125" enable-background="new 0 0 650 125" xml:space="preserve">
<path fill="#212121" d="M361.4,55.3L309.1,3c-1.9-2-4.3-3-7.2-3s-5.3,1-7.2,3l-6.1,6c-2,2-3,4.4-3,7.2c0,2.8,1,5.2,3,7.3l39,38.9
	l-39,39c-2,2-3,4.4-3,7.2c0,2.8,1,5.2,3,7.3l6.1,6c2,2,4.4,3,7.2,3c2.8,0,5.3-1,7.2-3l52.3-52.2c2-2.1,3-4.5,3-7.3
	C364.4,59.7,363.4,57.3,361.4,55.3z"/>
</svg>
