<?xml version="1.0" encoding="utf-8"?>
<!-- Generator: Adobe Illustrator 18.0.0, SVG Export Plug-In . SVG Version: 6.00 Build 0)  -->
<!DOCTYPE svg PUBLIC "-//W3C//DTD SVG 1.1//EN" "http://www.w3.org/Graphics/SVG/1.1/DTD/svg11.dtd">
<svg version="1.1" id="Layer_1" xmlns="http://www.w3.org/2000/svg" xmlns:xlink="http://www.w3.org/1999/xlink" x="0px" y="0px"
	 viewBox="0 0 612 792" enable-background="new 0 0 612 792" xml:space="preserve">
<path fill="#FFFFFF" d="M341.4,574.3l255.8-256.1c9.9-9.5,14.9-21.2,14.9-35.4c0-14.2-5-25.9-14.9-35.4l-29.4-29.9
	c-9.6-9.6-21.5-14.6-35.4-14.6c-13.6,0-25.6,4.8-35.8,14.6L306,408.5L115.2,217.7c-9.6-9.6-21.5-14.6-35.4-14.6
	c-13.6,0-25.6,4.8-35.8,14.6l-29.4,29.9C5,257.2,0,269,0,282.9c0,13.9,4.8,25.7,14.6,35.4l255.6,256.1c10.2,9.6,22.2,14.6,35.8,14.6
	C319.9,588.9,331.7,584.1,341.4,574.3L341.4,574.3z"/>
</svg>
