<?xml version="1.0" encoding="utf-8"?>
<!-- Generator: Adobe Illustrator 23.1.1, SVG Export Plug-In . SVG Version: 6.00 Build 0)  -->
<svg version="1.1" id="Layer_1" xmlns="http://www.w3.org/2000/svg" xmlns:xlink="http://www.w3.org/1999/xlink" x="0px" y="0px"
	 viewBox="0 0 101.8 101.8" style="enable-background:new 0 0 101.8 101.8;" xml:space="preserve">
<style type="text/css">
	.st0{fill:#FFFFFF;}
	.st1{fill:#636464;stroke:#636464;stroke-width:0.7723;stroke-miterlimit:10;}
	.st2{fill:#636464;}
</style>
<g>
	<g>
		<g>
			<g>
				<path class="st0" d="M33.5,14.5c-5.3,0-9.5,4.2-9.5,9.4s4.2,9.5,9.3,9.5c0.2,0,0.6,0.1,0.7,0.2c0.1,0.2,0.2,0.4,0.2,0.7
					c0,0.3-0.9,2.8-1.3,3.6c1-0.5,2.2-1,3.1-2.3c0.5-0.5,1-1.4,1-1.7c0.1-0.3,0.5-0.5,0.7-0.5h4c5.2,0,9.5-4.2,9.5-9.5
					s-4.1-9.3-9.4-9.3L33.5,14.5L33.5,14.5z"/>
			</g>
		</g>
		<g>
			<path class="st1" d="M31.1,40.1c-0.2,0-0.4-0.2-0.7-0.4c-0.2-0.2-0.2-0.7,0-0.9c0,0,1-1.7,1.7-3.9c-5.4-0.7-9.8-5.2-9.8-10.8
				c0-6,5-10.9,10.9-10.9h8.1c6,0,10.9,5,10.9,10.9S47.3,35,41.4,35c0,0-3.3-0.1-3.5,0c-0.2,0.3-0.7,1.2-1,1.7
				C34.7,39.7,31.6,40.1,31.1,40.1C31.4,40.1,31.4,40.1,31.1,40.1z M33.5,14.6c-5.2,0-9.4,4.2-9.4,9.4s4.2,9.4,9.1,9.4
				c0.2,0,0.5,0.1,0.7,0.2c0.1,0.2,0.2,0.3,0.2,0.7c0,0.3-0.9,2.7-1.2,3.5c1-0.4,2.1-1,3.1-2.3c0.4-0.4,0.9-1.4,1-1.7
				c-0.1-0.4,0.2-0.4,0.5-0.4h3.9c5.2,0,9.4-4.2,9.4-9.4s-4.2-9.4-9.4-9.4L33.5,14.6L33.5,14.6z"/>
			<g>
				<path class="st1" d="M53,40.1c-0.2,0-2.8-0.4-4.8-3.5c-0.2-0.4-0.2-0.9,0.2-1s0.9-0.2,1,0.2c0.7,1,1.4,1.7,2.1,2.1
					c-0.4-0.9-0.7-2.1-0.9-3.3c0-0.2-0.2-0.4,0.1-0.7s0.3-0.4,0.6-0.4c2.6-0.4,5.2-4.6,5.2-9.8c0-3.1-1-5.6-2.9-7.5
					c-0.2-0.2-0.2-0.9,0-1c0.2-0.2,0.9-0.2,1,0c2.1,2.1,3.3,5.2,3.3,8.5c0,5.6-2.8,10-5.5,10.9c0.7,2.3,1.4,4.2,1.4,4.2
					c0.2,0.3,0.2,0.7,0,1C53.6,40.2,53,40.1,53,40.1z"/>
			</g>
			<g>
				<g>
					<path class="st1" d="M44.2,22.5H30.9c-0.7,0-1-0.4-1-1c0-0.7,0.4-1,1-1h13.4c0.7,0,1,0.4,1,1C45.3,22,44.8,22.5,44.2,22.5z"/>
				</g>
				<g>
					<path class="st1" d="M44.2,27.8H30.9c-0.7,0-1-0.4-1-1s0.4-1,1-1h13.4c0.7,0,1,0.4,1,1C45.3,27.3,44.8,27.8,44.2,27.8z"/>
				</g>
			</g>
		</g>
	</g>
	<g>
		<g>
			<path class="st2" d="M35.1,65.7c-0.7-1.7-1.7-1.9-4.4-2.8c-2.7-0.7-4.5-1.7-5.3-2.8c-0.9-1-0.7-2.4-0.7-2.4s2.1-2.8,2.9-5
				c0.7-2.3,1-4.2,0.2-6.8c-0.9-2.8-3.5-3.9-5-4.5c-0.6-0.2-1.2-0.2-1.7-0.2c-0.6,0-1,0-1.7,0.2c-1.5,0.6-4.2,1.7-5,4.5
				c-0.9,2.8-0.7,4.5,0.2,6.8c0.7,2.3,2.9,5,2.9,5s0,1.4-0.7,2.4c-0.9,1-2.8,1.9-5.3,2.8c-2.8,0.9-3.7,0.9-4.5,2.8
				c-0.7,1.7-0.6,3.9-0.6,3.9h14.6h14.6C35.6,69.7,35.6,67.6,35.1,65.7z"/>
		</g>
		<g>
			<path class="st2" d="M74.2,65.7c-0.7-1.7-1.7-1.9-4.4-2.8c-2.7-0.7-4.5-1.7-5.3-2.8c-0.9-1-0.7-2.4-0.7-2.4s2.1-2.8,2.9-5
				c0.7-2.3,1-4.2,0.2-6.8c-0.9-2.8-3.5-3.9-5-4.5c-0.6-0.2-1.2-0.2-1.7-0.2c-0.5,0-1,0-1.7,0.2c-1.5,0.6-4.2,1.7-5,4.5
				s-0.7,4.5,0.2,6.8c0.7,2.3,2.9,5,2.9,5s0,1.4-0.7,2.4c-0.9,1-2.8,1.9-5.3,2.8c-2.8,0.9-3.7,0.9-4.5,2.8c-0.7,1.7-0.6,3.9-0.6,3.9
				h14.6h14.6C74.7,69.7,74.8,67.6,74.2,65.7z"/>
		</g>
	</g>
</g>
</svg>
