<svg id="Layer_1" data-name="Layer 1" xmlns="http://www.w3.org/2000/svg" viewBox="0 0 24 24"><defs><style>.cls-1{fill:#fff;}</style></defs><path class="cls-1" d="M23.47,20.86l-4.95-4.95a9.9,9.9,0,0,0,1.79-5.76,10,10,0,0,0-.8-3.94A10.23,10.23,0,0,0,17.34,3,10,10,0,0,0,14.1.8,10.13,10.13,0,0,0,6.21.8,9.88,9.88,0,0,0,.8,6.21,10.22,10.22,0,0,0,3,17.34a10.23,10.23,0,0,0,3.25,2.17,10.09,10.09,0,0,0,3.94.8,9.9,9.9,0,0,0,5.76-1.79l4.95,4.93a1.67,1.67,0,0,0,1.29.55,1.85,1.85,0,0,0,1.32-3.14Zm-8.75-6.14a6.24,6.24,0,0,1-4.56,1.9,6.25,6.25,0,0,1-4.57-1.9,6.25,6.25,0,0,1-1.9-4.57,6.24,6.24,0,0,1,1.9-4.56,6.25,6.25,0,0,1,4.57-1.9,6.24,6.24,0,0,1,4.56,1.9,6.24,6.24,0,0,1,1.9,4.56,6.25,6.25,0,0,1-1.9,4.57Z" transform="translate(0 0)"/></svg>