<?xml version="1.0" encoding="utf-8"?>
<!-- Generator: Adobe Illustrator 18.0.0, SVG Export Plug-In . SVG Version: 6.00 Build 0)  -->
<!DOCTYPE svg PUBLIC "-//W3C//DTD SVG 1.1//EN" "http://www.w3.org/Graphics/SVG/1.1/DTD/svg11.dtd">
<svg version="1.1" id="Layer_2" xmlns="http://www.w3.org/2000/svg" xmlns:xlink="http://www.w3.org/1999/xlink" x="0px" y="0px"
	 viewBox="0 0 110 110" enable-background="new 0 0 110 110" xml:space="preserve">
<g>
	<g>
		<path fill="#FFFFFF" d="M51.7,89.9c-1.2,0-2.2-1-2.2-2.2V48.2c0-1.2,1-2.2,2.2-2.2s2.2,1,2.2,2.2v39.5
			C53.9,89,52.9,89.9,51.7,89.9z"/>
	</g>
	<g>
		<path fill="#FFFFFF" d="M54,54.3c-0.6,0-1.1,0-1.7,0c-1,0-1.9-0.8-2.1-1.8c-0.1-0.3-4.7-26.1,19.1-31.1c5.5-1.1,10-1.4,12.9-1.4
			c2.2,0,3.5,0.1,3.5,0.1c1,0.1,1.8,0.9,1.9,1.9c0.1,0.5,1.2,13.1-7.3,22.4C74.5,51.1,65.7,54.3,54,54.3z M82.2,24.4
			c-2.7,0-6.9,0.2-12,1.3c-8.2,1.7-13.4,6.6-15.3,14.4c-1,4-0.8,7.8-0.7,9.9c10.2,0,17.9-2.8,22.8-8.3c5.4-6,6.2-13.8,6.3-17.3
			C83,24.4,82.7,24.4,82.2,24.4z"/>
	</g>
	<g>
		<path fill="#FFFFFF" d="M41.6,70.6C41.6,70.6,41.6,70.6,41.6,70.6c-12.2,0-18-10.5-19.3-16.1c-0.2-1,0.3-2,1.2-2.5
			c0.2-0.1,4.2-2,10.4-2.6c0.7-0.1,1.4-0.1,2-0.1c11.5,0,16.2,11.1,17.1,16.9c0.2,1-0.4,2-1.4,2.4C48.1,69.9,44.7,70.6,41.6,70.6z
			 M27.1,55.3c1.3,3.5,5.3,10.9,14.5,10.9c2.1,0,4.3-0.4,6.7-1.1c-1-3.6-4-11.4-12.4-11.4c-0.5,0-1,0-1.6,0.1
			C31.2,54.1,28.7,54.8,27.1,55.3z"/>
	</g>
</g>
</svg>
