<?xml version="1.0" encoding="utf-8"?>
<!-- Generator: Adobe Illustrator 18.0.0, SVG Export Plug-In . SVG Version: 6.00 Build 0)  -->
<!DOCTYPE svg PUBLIC "-//W3C//DTD SVG 1.1//EN" "http://www.w3.org/Graphics/SVG/1.1/DTD/svg11.dtd">
<svg version="1.1" id="Layer_2" xmlns="http://www.w3.org/2000/svg" xmlns:xlink="http://www.w3.org/1999/xlink" x="0px" y="0px"
	 viewBox="0 0 110 110" enable-background="new 0 0 110 110" xml:space="preserve">
<g>
	<g>
		<path fill="#FFFFFF" d="M86.7,87.7H71.2c-5.1,0-8.5-3.1-11.3-5.9c0,0-0.1-0.1-0.1-0.1L54,74.7c-0.8-1-0.7-2.4,0.3-3.2
			c1-0.8,2.4-0.7,3.2,0.3l5.8,6.8c2.7,2.8,5,4.5,8,4.5h11.5L47.8,25.7c-0.6-1.1-0.3-2.4,0.8-3.1c1.1-0.6,2.4-0.3,3.1,0.8l37,60.9
			c0.4,0.7,0.4,1.6,0,2.3S87.5,87.7,86.7,87.7z"/>
	</g>
	<g>
		<path fill="#FFFFFF" d="M41.7,87.7H23.3c-0.8,0-1.6-0.5-2-1.2s-0.3-1.6,0.1-2.3l42-60.9c0.7-1,2.1-1.3,3.1-0.6
			c1,0.7,1.3,2.1,0.6,3.1L27.6,83.2h14.2c3.5,0,4.8-0.7,8.6-6.9c3.8-6.1,15-24.1,15-24.1l3.8,2.4c0,0-11.2,17.9-15,24.1
			C50.4,84.8,47.9,87.7,41.7,87.7z"/>
	</g>
</g>
</svg>
