<?xml version="1.0" encoding="utf-8"?>
<!-- Generator: Adobe Illustrator 18.0.0, SVG Export Plug-In . SVG Version: 6.00 Build 0)  -->
<!DOCTYPE svg PUBLIC "-//W3C//DTD SVG 1.1//EN" "http://www.w3.org/Graphics/SVG/1.1/DTD/svg11.dtd">
<svg version="1.1" id="Layer_2" xmlns="http://www.w3.org/2000/svg" xmlns:xlink="http://www.w3.org/1999/xlink" x="0px" y="0px"
	 viewBox="0 0 612 792" enable-background="new 0 0 612 792" xml:space="preserve">
<g>
	<g>
		<path fill="#FFFFFF" d="M370.8,556.7c-1.8,0-3.6-0.7-4.9-2l-27.6-27.6c-2.6-2.6-2.7-6.8-0.2-9.5c10.6-11.7,16.5-26.8,16.5-42.5
			c0-34.9-28.4-63.2-63.2-63.2c-15.7,0-30.8,5.8-42.5,16.5c-2.7,2.5-6.9,2.4-9.5-0.2l-27.6-27.6c-1.3-1.3-2-3.1-2-5
			c0-1.9,0.8-3.6,2.2-4.9c16.3-15.3,36.4-25.5,58.2-29.5l45.6-52l-18.3-10.7L265,327.4c-5.2,4.6-11.8,7.2-18.8,7.2
			c-8,0-15.7-3.4-21.1-9.4c-10.4-11.6-9.3-29.5,2.3-39.8l47.7-42.6c5.2-4.6,11.8-7.2,18.8-7.2c5,0,9.9,1.3,14.2,3.8
			c85.3,49.6,96.3,56,98,57l0,0c6.4,4,10.9,10.3,12.5,17.7c2.9,10.4,0.4,21.5-6.7,29.6l-30.1,34.3l58-3.2c0.5,0,1,0,1.5,0
			c7.6,0,14.9,3.1,20.2,8.5c5.7,5.8,8.6,13.9,7.9,22l-9,110.3c-1.2,14.5-13.5,25.9-28.1,25.9c-0.8,0-1.6,0-2.3-0.1
			c-15.5-1.3-27.1-14.9-25.8-30.4l1.2-15c-4,21.9-14.1,42.2-29.6,58.7c-1.3,1.4-3,2.1-4.9,2.2C370.9,556.7,370.9,556.7,370.8,556.7z
			 M352.6,521.8l17.9,17.9c14.9-18.2,23.1-40.9,23.1-64.6c0-15.8-3.5-30.9-10.4-45c-1-2.1-0.9-4.5,0.2-6.5s3.3-3.3,5.6-3.4l28.8-1.6
			c2-0.1,3.9,0.6,5.3,2.1c1.4,1.4,2.1,3.4,1.9,5.4l-7,85.9c-0.6,7.9,5.3,14.9,13.2,15.6c0.4,0,0.8,0,1.2,0c7.5,0,13.8-5.8,14.4-13.3
			l9-110.3c0.3-4.2-1.1-8.3-4-11.3c-2.9-3-7-4.6-11.2-4.3l-74.3,4.1c-2.8,0.2-5.4-1.4-6.6-3.9c-1.2-2.5-0.8-5.5,1-7.6l40.9-46.6
			c4.1-4.6,5.5-11,3.8-17c0-0.1-0.1-0.3-0.1-0.4c-0.8-3.8-3.1-7-6.4-9.1c-2.5-1.5-64.8-37.7-97.7-56.8c-2.2-1.3-4.7-2-7.2-2
			c-3.6,0-7,1.3-9.6,3.7l-47.7,42.6c-5.9,5.3-6.5,14.4-1.2,20.4c2.7,3.1,6.7,4.8,10.8,4.8c3.5,0,7-1.3,9.6-3.7l36.2-32.3
			c2.2-2,5.5-2.3,8-0.8l29.9,17.4c1.8,1,3,2.8,3.3,4.8c0.3,2-0.3,4.1-1.6,5.7L278.9,372c-1.1,1.2-2.5,2-4.1,2.3
			c-17.7,2.9-34.2,10.4-48.1,21.7l17.9,17.9c13.4-10.2,29.7-15.8,46.7-15.8c42.5,0,77,34.5,77,77
			C368.4,492.1,362.8,508.4,352.6,521.8z M399.6,433.4c4.9,12.7,7.5,26,7.7,39.8l3.3-40.5L399.6,433.4z"/>
	</g>
	<g>
		<path fill="#FFFFFF" d="M417.2,303.5c-23.5,0-42.6-19.1-42.6-42.6c0-23.5,19.1-42.6,42.6-42.6c23.5,0,42.6,19.1,42.6,42.6
			C459.7,284.4,440.6,303.5,417.2,303.5z M417.2,232.1c-15.9,0-28.8,12.9-28.8,28.8s12.9,28.8,28.8,28.8c15.9,0,28.8-12.9,28.8-28.8
			S433,232.1,417.2,232.1z"/>
	</g>
	<g>
		<path fill="#FFFFFF" d="M291.4,591c-63.9,0-115.9-52-115.9-115.9c0-26.2,8.5-50.9,24.7-71.4c1.2-1.6,3-2.5,5-2.6
			c2-0.1,3.9,0.6,5.3,2l27.9,27.9c2.3,2.3,2.7,6,0.8,8.7c-7.1,10.5-10.9,22.8-10.9,35.5c0,34.9,28.4,63.2,63.2,63.2
			c12.7,0,25-3.8,35.5-10.9c2.7-1.9,6.4-1.5,8.7,0.8l27.9,27.9c1.4,1.4,2.1,3.3,2,5.3c-0.1,2-1.1,3.8-2.6,5
			C342.3,582.5,317.6,591,291.4,591z M206.4,418.5c-11.2,16.8-17.1,36.2-17.1,56.6c0,56.3,45.8,102.2,102.2,102.2
			c20.4,0,39.8-5.9,56.6-17.1l-18.3-18.3c-11.6,6.7-24.8,10.2-38.3,10.2c-42.5,0-77-34.5-77-77c0-13.6,3.5-26.7,10.2-38.3
			L206.4,418.5z"/>
	</g>
</g>
</svg>
