<?xml version="1.0" encoding="utf-8"?>
<!-- Generator: Adobe Illustrator 18.0.0, SVG Export Plug-In . SVG Version: 6.00 Build 0)  -->
<!DOCTYPE svg PUBLIC "-//W3C//DTD SVG 1.1//EN" "http://www.w3.org/Graphics/SVG/1.1/DTD/svg11.dtd">
<svg version="1.1" id="Layer_2" xmlns="http://www.w3.org/2000/svg" xmlns:xlink="http://www.w3.org/1999/xlink" x="0px" y="0px"
	 viewBox="0 0 110 110" enable-background="new 0 0 110 110" xml:space="preserve">
<g>
	<g>
		<path fill="#FFFFFF" d="M76.6,91.6h-42c-1.2,0-2.1-0.9-2.1-2.1V17.4c0-1.2,0.9-2.1,2.1-2.1h42c1.2,0,2.1,0.9,2.1,2.1v72.1
			C78.7,90.6,77.7,91.6,76.6,91.6z M36.7,87.4h37.8V19.5H36.7V87.4z"/>
	</g>
	<g>
		<path fill="#FFFFFF" d="M50.7,49.6C50.6,49.6,50.6,49.6,50.7,49.6c-0.7,0-1.2-0.3-1.6-0.7l-4.9-5.6c-0.8-0.9-0.7-2.2,0.2-3
			s2.2-0.7,3,0.2l3.5,3.9L66,29.9c0.8-0.8,2.2-0.8,3,0.1c0.8,0.8,0.8,2.2-0.1,3L52.1,49C51.7,49.4,51.2,49.6,50.7,49.6z"/>
	</g>
</g>
</svg>
