<?xml version="1.0" encoding="utf-8"?>
<!-- Generator: Adobe Illustrator 18.0.0, SVG Export Plug-In . SVG Version: 6.00 Build 0)  -->
<!DOCTYPE svg PUBLIC "-//W3C//DTD SVG 1.1//EN" "http://www.w3.org/Graphics/SVG/1.1/DTD/svg11.dtd">
<svg version="1.1" id="Layer_3" xmlns="http://www.w3.org/2000/svg" xmlns:xlink="http://www.w3.org/1999/xlink" x="0px" y="0px"
	 viewBox="0 0 110 110" enable-background="new 0 0 110 110" xml:space="preserve">
<g>
	<g>
		<path fill="#FFFFFF" d="M63.8,90.7c-0.4,0-0.9-0.1-1.2-0.4L55,84.8l-7.5,5.5c-0.7,0.5-1.7,0.5-2.5,0c-0.7-0.5-1-1.5-0.8-2.3
			l2.9-8.8l-7.5-5.5c-0.7-0.5-1-1.5-0.8-2.3s1.1-1.5,2-1.5h9.3L53,61c0.3-0.9,1.1-1.5,2-1.5c0.9,0,1.7,0.6,2,1.5l2.9,8.8h9.3
			c0.9,0,1.7,0.6,2,1.5s0,1.8-0.8,2.3l-7.5,5.5l2.9,8.8c0.3,0.9,0,1.8-0.8,2.3C64.6,90.6,64.2,90.7,63.8,90.7z M55,80.1
			c0.4,0,0.9,0.1,1.2,0.4l3.5,2.6L58.4,79c-0.3-0.9,0-1.8,0.8-2.3l3.5-2.6h-4.4c-0.9,0-1.7-0.6-2-1.5L55,68.4l-1.3,4.1
			c-0.3,0.9-1.1,1.5-2,1.5h-4.4l3.5,2.6c0.7,0.5,1,1.5,0.8,2.3l-1.3,4.1l3.5-2.6C54.1,80.3,54.6,80.1,55,80.1z"/>
	</g>
	<g>
		<path fill="#FFFFFF" d="M55.1,61.5c-0.4,0-0.7-0.1-1.1-0.3l-9.8-5.8c-0.6-0.4-1-1.1-1-1.8V21.4c0-1.2,0.9-2.1,2.1-2.1h19.5
			c1.2,0,2.1,0.9,2.1,2.1v32.2c0,0.7-0.4,1.4-1,1.8l-9.7,5.8C55.8,61.4,55.4,61.5,55.1,61.5z M47.3,52.4l7.7,4.5l7.6-4.5V23.5H47.3
			V52.4z"/>
	</g>
</g>
</svg>
