<?xml version="1.0" encoding="utf-8"?>
<!-- Generator: Adobe Illustrator 18.0.0, SVG Export Plug-In . SVG Version: 6.00 Build 0)  -->
<!DOCTYPE svg PUBLIC "-//W3C//DTD SVG 1.1//EN" "http://www.w3.org/Graphics/SVG/1.1/DTD/svg11.dtd">
<svg version="1.1" id="Layer_3" xmlns="http://www.w3.org/2000/svg" xmlns:xlink="http://www.w3.org/1999/xlink" x="0px" y="0px"
	 viewBox="0 0 110 110" enable-background="new 0 0 110 110" xml:space="preserve">
<g>
	<g>
		<path fill="#FFFFFF" d="M55.8,63.4c-0.3,0-0.6-0.1-0.8-0.2L12.7,45.4c-0.8-0.3-1.3-1.1-1.3-2c0-0.9,0.6-1.6,1.4-1.9l42.3-15
			c0.5-0.2,1-0.2,1.4,0l42.3,15c0.8,0.3,1.4,1.1,1.4,1.9c0,0.9-0.5,1.7-1.3,2L56.6,63.2C56.4,63.3,56.1,63.4,55.8,63.4z M19.3,43.7
			L55.8,59l36.5-15.4l-36.5-13L19.3,43.7z"/>
	</g>
	<g>
		<path fill="#FFFFFF" d="M57,79.3c-23.8,0-25.6-8.1-25.7-9.7c0,0,0-0.1,0-0.2V52.3c0-1.2,0.9-2.1,2.1-2.1s2.1,0.9,2.1,2.1v16.9
			c0.5,1.7,5.1,5.9,21.5,5.9c19.5,0,21.2-5.6,21.2-5.7V51c0-1.2,0.9-2.1,2.1-2.1s2.1,0.9,2.1,2.1v18.5C82.4,71.2,81,79.3,57,79.3z"
			/>
	</g>
	<g>
		<path fill="#FFFFFF" d="M93.2,56.7c-1.2,0-2.1-0.9-2.1-2.1v-9c0-1.2,0.9-2.1,2.1-2.1s2.1,0.9,2.1,2.1v9
			C95.3,55.8,94.3,56.7,93.2,56.7z"/>
	</g>
	<g>
		<path fill="#FFFFFF" d="M93.2,59.8c-2.1,0-3.7-1.7-3.7-3.7c0-2.1,1.7-3.7,3.7-3.7c2.1,0,3.7,1.7,3.7,3.7
			C96.9,58.2,95.2,59.8,93.2,59.8z M93.2,55.6c-0.3,0-0.5,0.2-0.5,0.5c0,0.3,0.2,0.5,0.5,0.5c0.3,0,0.5-0.2,0.5-0.5
			C93.7,55.9,93.5,55.6,93.2,55.6z"/>
	</g>
	<g>
		<path fill="#FFFFFF" d="M96.7,64.2h-6.9c-0.7,0-1.4-0.4-1.8-1c-0.4-0.6-0.4-1.4,0-2.1l2.5-4.6c0.5-1,1.7-1.4,2.7-0.9
			c1-0.5,2.2-0.1,2.8,0.8l2.6,4.7c0.4,0.7,0.3,1.4,0,2.1C98.2,63.8,97.5,64.2,96.7,64.2z"/>
	</g>
</g>
</svg>
