<?xml version="1.0" encoding="utf-8"?>
<!-- Generator: Adobe Illustrator 18.0.0, SVG Export Plug-In . SVG Version: 6.00 Build 0)  -->
<!DOCTYPE svg PUBLIC "-//W3C//DTD SVG 1.1//EN" "http://www.w3.org/Graphics/SVG/1.1/DTD/svg11.dtd">
<svg version="1.1" id="Layer_1" xmlns="http://www.w3.org/2000/svg" xmlns:xlink="http://www.w3.org/1999/xlink" x="0px" y="0px"
	 viewBox="0 0 110 110" enable-background="new 0 0 110 110" xml:space="preserve">
<g>
	<g>
		<path fill="#FFFFFF" d="M61.9,56.8c-0.9-1.1-2.9-2-5.8-2.9l-1.3-0.4c-0.9-0.2-1.7-0.5-2.4-0.8c-0.6-0.3-1.1-0.6-1.5-1
			s-0.6-0.8-0.8-1.3c-0.2-0.5-0.3-1-0.3-1.6c0-2.9,1.6-4.5,4.9-4.7H56c2.4,0.4,3.8,1.8,4.4,4.3c0,0,0.4,0.6,1.2,0.5
			c0.7-0.1,0.9-0.8,0.9-0.8c-0.9-3.6-3-5.6-6.5-5.9v-4.3h-1.3v4.3c-1.5,0.1-2.8,0.4-3.8,1s-1.8,1.3-2.4,2.2c-0.5,0.9-0.8,2-0.8,3.3
			c0,1,0.2,1.9,0.5,2.7s0.8,1.4,1.4,1.9s1.3,0.9,2.1,1.2c0.7,0.3,1.7,0.6,3,0.9l1.3,0.3c1.7,0.5,2.8,1,3.4,1.4s1,1,1.3,1.6
			s0.4,1.3,0.4,2c0,3-1.7,4.8-5.2,5.3h-1.3c-2.9-0.3-4.7-2.2-5.5-5.7c0,0-0.2-0.5-1-0.4s-1,0.7-1,0.7c0.7,4.6,3.3,6.9,7.6,7.1v4H56
			v-4c2.3-0.2,4-1,5.3-2.2s1.9-2.9,1.9-4.9C63.3,59.3,62.8,57.9,61.9,56.8z"/>
		<path fill="#FFFFFF" d="M56.8,72.8H54v-4c-4.2-0.4-6.8-3-7.5-7.7v-0.2v-0.2c0.1-0.4,0.6-1.1,1.6-1.3c0.1,0,0.2,0,0.3,0
			c0.9,0,1.4,0.6,1.5,0.9v0.1c0.7,3.2,2.3,4.8,4.8,5.1h1.2c3-0.4,4.5-1.9,4.5-4.5c0-0.6-0.1-1.2-0.3-1.7S59.5,58.4,59,58
			c-0.4-0.3-1.2-0.7-3.2-1.3l-1.3-0.3c-1.2-0.3-2.3-0.7-3-0.9c-0.8-0.3-1.6-0.7-2.3-1.3c-0.7-0.6-1.3-1.3-1.7-2.2s-0.6-1.9-0.6-3
			c0-1.4,0.3-2.7,0.9-3.7c0.6-1.1,1.5-1.9,2.7-2.5c1-0.5,2.1-0.9,3.4-1v-4.4h2.8v4.4c3.4,0.5,5.6,2.7,6.5,6.4v0.2l-0.1,0.2
			c-0.1,0.4-0.6,1.2-1.5,1.3c-1.2,0.2-1.9-0.7-2-0.8l0.2-0.1v-0.1c-0.5-2.2-1.7-3.5-3.8-3.8h-1.2c-2.8,0.2-4.2,1.5-4.2,4
			c0,0.5,0.1,0.9,0.2,1.3c0.1,0.4,0.3,0.7,0.6,1c0.3,0.3,0.7,0.6,1.3,0.8c0.6,0.3,1.3,0.5,2.2,0.7l1.3,0.4c3.1,0.9,5.1,1.9,6.2,3.1
			c1.1,1.2,1.6,2.7,1.6,4.6c0,2.2-0.7,4.1-2.1,5.5c-1.3,1.2-3,2-5.1,2.3V72.8z M48,61.1c0.7,4,3,6,6.8,6.2h0.7H56
			c2.1-0.2,3.7-0.9,4.8-2c1.1-1.1,1.7-2.5,1.7-4.4c0-1.5-0.4-2.6-1.2-3.6c-0.8-1-2.7-1.8-5.4-2.7l-1.3-0.4c-1-0.2-1.8-0.5-2.5-0.8
			s-1.3-0.7-1.7-1.1c-0.4-0.4-0.8-1-1-1.5s-0.3-1.2-0.3-1.8c0-2.3,1-5.1,5.6-5.5h1.4c2.7,0.4,4.4,2,5.1,4.7c0.1,0.1,0.2,0.1,0.3,0.1
			c0.1,0,0.2-0.1,0.3-0.1c-0.8-3.1-2.7-4.8-5.8-5h-0.5h-0.6c-1.4,0.1-2.5,0.4-3.5,0.9c-0.9,0.5-1.6,1.1-2.1,2
			c-0.5,0.8-0.7,1.8-0.7,2.9c0,0.9,0.1,1.7,0.4,2.4s0.7,1.2,1.2,1.6c0.6,0.4,1.2,0.8,1.8,1c0.7,0.3,1.7,0.6,2.9,0.9l1.3,0.3
			c1.8,0.5,3,1,3.7,1.5s1.2,1.1,1.6,1.9c0.3,0.7,0.5,1.5,0.5,2.3c0,2.4-1,5.3-5.8,6h-0.1h-1.3c-3.3-0.3-5.3-2.4-6.2-6.1h-0.1h-0.1
			C48.2,61,48.1,61.1,48,61.1z"/>
	</g>
	<g>
		<path fill="#FFFFFF" d="M55.3,81.1c-14.3,0-25.9-11.6-25.9-25.9S41,29.3,55.3,29.3s25.9,11.6,25.9,25.9S69.6,81.1,55.3,81.1z
			 M55.3,33.1c-12.2,0-22.1,9.9-22.1,22.1s9.9,22.1,22.1,22.1s22.1-9.9,22.1-22.1C77.5,43,67.5,33.1,55.3,33.1z"/>
	</g>
	<g>
		<path fill="#FFFFFF" d="M55.3,25.8c-1,0-1.9-0.8-1.9-1.9v-5.4c0-1,0.8-1.9,1.9-1.9c1,0,1.9,0.8,1.9,1.9v5.4
			C57.2,24.9,56.4,25.8,55.3,25.8z"/>
	</g>
	<g>
		<path fill="#FFFFFF" d="M25.1,56.1H19c-1,0-1.9-0.8-1.9-1.9s0.8-1.9,1.9-1.9h6.1c1,0,1.9,0.8,1.9,1.9S26.1,56.1,25.1,56.1z"/>
	</g>
	<g>
		<path fill="#FFFFFF" d="M34.6,34.4c-0.5,0-1-0.2-1.3-0.6l-3.1-3.1c-0.7-0.7-0.7-1.9,0-2.7c0.7-0.7,1.9-0.7,2.7,0l3.1,3.1
			c0.7,0.7,0.7,1.9,0,2.7C35.5,34.2,35,34.4,34.6,34.4z"/>
	</g>
	<g>
		<path fill="#FFFFFF" d="M92,56.1h-6c-1,0-1.9-0.8-1.9-1.9s0.8-1.9,1.9-1.9h6c1,0,1.9,0.8,1.9,1.9S93.1,56.1,92,56.1z"/>
	</g>
	<g>
		<path fill="#FFFFFF" d="M77.1,35c-0.5,0-1-0.2-1.3-0.6c-0.7-0.7-0.7-1.9,0-2.7l3.1-3.1c0.7-0.7,1.9-0.7,2.7,0
			c0.7,0.7,0.7,1.9,0,2.7l-3.1,3.1C78.1,34.8,77.6,35,77.1,35z"/>
	</g>
	<g>
		<path fill="#FFFFFF" d="M67.3,93.8H43.4c-1,0-1.9-0.8-1.9-1.9V76.4c0-1,0.8-1.9,1.9-1.9s1.9,0.8,1.9,1.9V90h20.1V76.4
			c0-1,0.8-1.9,1.9-1.9s1.9,0.8,1.9,1.9V92C69.2,93,68.3,93.8,67.3,93.8z"/>
	</g>
	<g>
		<path fill="#FFFFFF" d="M66.9,87H44.2c-1,0-1.9-0.8-1.9-1.9s0.8-1.9,1.9-1.9h22.7c1,0,1.9,0.8,1.9,1.9S67.9,87,66.9,87z"/>
	</g>
</g>
</svg>
