<?xml version="1.0" encoding="utf-8"?>
<!-- Generator: Adobe Illustrator 18.0.0, SVG Export Plug-In . SVG Version: 6.00 Build 0)  -->
<!DOCTYPE svg PUBLIC "-//W3C//DTD SVG 1.1//EN" "http://www.w3.org/Graphics/SVG/1.1/DTD/svg11.dtd">
<svg version="1.1" id="Layer_3" xmlns="http://www.w3.org/2000/svg" xmlns:xlink="http://www.w3.org/1999/xlink" x="0px" y="0px"
	 viewBox="0 0 110 110" enable-background="new 0 0 110 110" xml:space="preserve">
<g>
	<path fill="#FFFFFF" d="M55,81.4c-0.4,0-0.7-0.1-1.1-0.3c-1.6-1-38.5-24.7-28.8-43.6c3-5.8,7.9-8.8,14.3-8.8
		c6.5,0,12.9,3.2,15.6,4.7c2.7-1.5,9.1-4.7,15.6-4.7c6.4,0,11.3,3.1,14.3,8.8c9.7,18.9-27.2,42.6-28.8,43.6
		C55.7,81.3,55.4,81.4,55,81.4z M39.4,32.6c-4.9,0-8.4,2.2-10.7,6.7C22.3,51.9,44.6,70.1,55,77c10.4-6.9,32.7-25.1,26.3-37.7
		c-2.3-4.5-5.8-6.7-10.7-6.7c-6.7,0-13.7,4.2-14.5,4.7c-0.6,0.4-1.5,0.4-2.1,0C53.2,36.8,46.2,32.6,39.4,32.6z"/>
</g>
</svg>
