<?xml version="1.0" encoding="utf-8"?>
<!-- Generator: Adobe Illustrator 18.0.0, SVG Export Plug-In . SVG Version: 6.00 Build 0)  -->
<!DOCTYPE svg PUBLIC "-//W3C//DTD SVG 1.1//EN" "http://www.w3.org/Graphics/SVG/1.1/DTD/svg11.dtd">
<svg version="1.1" id="Layer_2" xmlns="http://www.w3.org/2000/svg" xmlns:xlink="http://www.w3.org/1999/xlink" x="0px" y="0px"
	 viewBox="0 0 110 110" enable-background="new 0 0 110 110" xml:space="preserve">
<g>
	<g>
		<path fill="#FFFFFF" d="M88,82.3c-0.3,0-0.7-0.1-1-0.3L52.6,62.4H27.5c-1.1,0-1.9-0.9-1.9-1.9V42c0-1.1,0.9-1.9,1.9-1.9h25.2
			l34.5-16.8c0.6-0.3,1.3-0.3,1.9,0.1s0.9,1,0.9,1.6v55.4c0,0.7-0.4,1.3-1,1.7C88.7,82.2,88.3,82.3,88,82.3z M29.4,58.6h23.7
			c0.3,0,0.7,0.1,1,0.3l32,18.3v-49L53.9,43.7c-0.3,0.1-0.6,0.2-0.8,0.2H29.4V58.6z"/>
	</g>
	<g>
		<path fill="#FFFFFF" d="M33.9,85.9H22.5c-0.6,0-1.2-0.3-1.6-0.8c-0.4-0.5-0.4-1.2-0.2-1.8l8.6-22.8c0.4-1,1.5-1.5,2.5-1.1
			s1.5,1.5,1.1,2.5l-7.6,20.2h7.3l7.7-21.5c0.4-1,1.5-1.5,2.5-1.2c1,0.4,1.5,1.5,1.2,2.5l-8.2,22.8C35.4,85.4,34.7,85.9,33.9,85.9z"
			/>
	</g>
	<g>
		<path fill="#FFFFFF" d="M53.1,62.4c-1.1,0-1.9-0.9-1.9-1.9V42c0-1.1,0.9-1.9,1.9-1.9S55,40.9,55,42v18.5
			C55,61.6,54.2,62.4,53.1,62.4z"/>
	</g>
</g>
</svg>
